<svg width="48" height="47" viewBox="0 0 48 47" fill="none" xmlns="http://www.w3.org/2000/svg">
<path fill-rule="evenodd" clip-rule="evenodd" d="M35.1998 36.8724C36.4745 38.688 36.7708 41.1064 35.7675 43.2589C34.2643 46.4858 30.4118 47.8936 27.1626 46.4007C26.0237 45.8759 25.1096 45.0674 24.4669 44.0958L6.60026 21.9468L6.61097 21.9397C5.22205 20.1064 4.865 17.5922 5.90401 15.3617C6.94659 13.1206 9.12102 11.7589 11.4418 11.6348L11.4383 11.5568L41.0018 10.6986L41.0054 10.7518C41.8409 10.7802 42.6835 10.9752 43.4869 11.344C46.736 12.8369 48.1535 16.6631 46.6503 19.8901C45.6542 22.0319 43.6226 23.3724 41.416 23.5958V23.61L41.0804 23.6206C40.9947 23.6241 40.9054 23.6277 40.8197 23.6277L23.8278 23.5568L35.2641 36.8298L35.1998 36.8795V36.8724Z" fill="#9B407A"/>
<path fill-rule="evenodd" clip-rule="evenodd" d="M35.7675 43.2624C36.7708 41.11 36.4709 38.6915 35.1998 36.8759L35.2641 36.8263L34.0429 35.4078L17.8365 35.8795L24.4669 44.0993C25.1096 45.071 26.0237 45.8795 27.1626 46.4043C30.4118 47.8972 34.2643 46.4894 35.7675 43.2624Z" fill="#FECC06"/>
<path fill-rule="evenodd" clip-rule="evenodd" d="M17.8366 35.8759L34.043 35.4078L23.8314 23.5568L7.71783 23.3334L17.8366 35.8759Z" fill="#6A8E2B"/>
<path fill-rule="evenodd" clip-rule="evenodd" d="M7.71782 23.3334L23.8314 23.5568L23.8278 23.5532H23.835L13.2235 11.5071L11.4383 11.5603L11.4418 11.6383C9.12101 11.7625 6.94659 13.1277 5.90401 15.3653C4.865 17.5958 5.22205 20.11 6.61097 21.9433L6.60026 21.9504L7.71782 23.3334Z" fill="#9B407A"/>
<path fill-rule="evenodd" clip-rule="evenodd" d="M29.4014 11.0355L39.5522 23.6171L40.8198 23.6241L41.0804 23.6171L41.416 23.6064V23.5922C43.619 23.3688 45.6506 22.0284 46.6504 19.8866C48.1535 16.6596 46.736 12.8334 43.4869 11.3405C42.6836 10.9717 41.8409 10.7802 41.0054 10.7483V10.6951L29.4049 11.0319L29.4014 11.0355Z" fill="#E84542"/>
<path fill-rule="evenodd" clip-rule="evenodd" d="M13.2235 11.5036L29.4013 11.032L22.1461 2.03552L22.1211 2.05679C21.5641 1.4575 20.8822 0.957503 20.0895 0.595801C16.8404 -0.897107 12.9879 0.510694 11.4847 3.73764C10.4957 5.8653 10.7742 8.25183 12.0095 10.0603L11.9774 10.0852L13.2271 11.5036H13.2235Z" fill="#5FC6F1"/>
<path fill-rule="evenodd" clip-rule="evenodd" d="M39.5522 23.6171L23.8349 23.5497L23.8385 23.5532H23.8314L34.0429 35.4043L35.2498 35.3688C37.7741 35.4504 40.2199 34.0532 41.3481 31.6348C42.3979 29.3795 42.023 26.8334 40.5948 24.9965L40.6376 24.961L39.5522 23.6171Z" fill="#5FC6F1"/>
<path fill-rule="evenodd" clip-rule="evenodd" d="M17.8366 35.8759L7.71788 23.3298L5.82195 23.305L5.82552 23.4078C3.62611 23.6348 1.59808 24.9717 0.601914 27.11C-0.901258 30.3369 0.516222 34.1631 3.76536 35.6561C4.96861 36.2092 6.25755 36.3653 7.47866 36.1738L17.8366 35.8724V35.8759Z" fill="#5FC6F1"/>
</svg>
